<?xml version="1.0" encoding="UTF-8"?>
<svg xmlns="http://www.w3.org/2000/svg" width="24" height="24" viewBox="0 0 24 24" fill="none" stroke="black" stroke-width="2" stroke-linecap="round" stroke-linejoin="round">
  <path d="M17 11c.3-1.3 0-2.7-1-3.7l-4-4c-2-2-5.1-2-7.1 0-2 2-2 5.1 0 7.1l4 4c1 1 2.4 1.3 3.7 1"/><path d="M11 17c-1.3-.3-2.7 0-3.7 1l-4 4c-2 2-2 5.1 0 7.1 2 2 5.1 2 7.1 0l4-4c1-1 1.3-2.4 1-3.7"/><path d="M18 11h2c1.1 0 2 .9 2 2v2c0 1.1-.9 2-2 2h-2"/><path d="M11 18v2c0 1.1.9 2 2 2h2c1.1 0 2-.9 2-2v-2"/>
</svg>